# xmcd CD database file
#
# Track frame offsets:
#	150
#	8640
#	28838
#	48399
#	63330
#	84181
#	102472
#	120847
#	139134
#	162163
#	178071
#	193721
#
# Disc length: 2799 seconds
#
# Revision: 2
# Processed by: cddbd v1.5.2PL0 Copyright (c) Steve Scherf et al.
# Submitted via: CDex 1.70beta3
#
DISCID=950aed0c
DTITLE=DOPING PANDA - Dopamaniacs
DYEAR=2008
DGENRE=Rock
TTITLE0=A.O.D.(anthem of dopamania)
TTITLE1=nothin'
TTITLE2=I'll be there (connected to next ver.)
TTITLE3=call my name
TTITLE4=We won't stop
TTITLE5=thunder
TTITLE6=good bye to heroes
TTITLE7=coffee high (one more cup)
TTITLE8=summer song
TTITLE9=Crazy
TTITLE10=way back
TTITLE11=kiss my kiss
EXTD=YEAR: 2008
EXTT0=
EXTT1=
EXTT2=
EXTT3=
EXTT4=
EXTT5=
EXTT6=
EXTT7=
EXTT8=
EXTT9=
EXTT10=
EXTT11=
PLAYORDER=
